<?xml version="1.0" encoding="utf-8"?>
<!-- Generator: Adobe Illustrator 21.1.0, SVG Export Plug-In . SVG Version: 6.00 Build 0)  -->
<svg version="1.1" id="Layer_1" xmlns="http://www.w3.org/2000/svg" xmlns:xlink="http://www.w3.org/1999/xlink" x="0px" y="0px"
	 viewBox="0 0 708 71.7" style="enable-background:new 0 0 708 71.7;" xml:space="preserve">
<style type="text/css">
	.st0{enable-background:new    ;}
	.st1{fill:#24285D;}
	.st2{fill:#FFCD05;}
	.st3{fill:#88A1AF;}
	.st4{fill:#B4D1D7;}
	.st5{fill:#4B6970;}
	.st6{fill:#E1EAEF;}
</style>
<g class="st0">
	<path class="st1" d="M82.9,54.5c-0.1-1.9-0.2-4.5-0.4-7.8c-0.1-3.3-0.2-6.7-0.2-10.2c0-2,0-4,0-6.2c0-2.1,0.1-4.3,0.1-6.5
		c0.1-4.4,0.4-7.9,0.9-10.4c0.4-2.5,1.4-4.4,2.7-5.7c1.4-1.3,3.3-2,5.7-2.3c2.5-0.3,5.7-0.4,9.8-0.4c0.1,0,0.7,0,1.9,0
		c1.2,0,2.7,0,4.5,0c1.7,0,3.6,0.1,5.4,0.1c1.9,0.1,3.5,0.1,4.7,0.2c1.3,0.1,2.4,0.3,3.2,0.5c0.8,0.2,1.4,0.5,1.8,0.8
		c0.4,0.3,0.7,0.7,0.8,1.2c0.1,0.4,0.2,0.9,0.2,1.5c0,1.4-0.4,2.4-1.2,3c-0.8,0.6-2.4,1-4.8,1.2c-1.2,0.1-3,0.2-5.3,0.2
		c-2.3,0-4.7,0-7.1,0c-2.4,0-4.6,0-6.5,0c-1.9,0-3.1,0-3.6,0c-1.6,0.1-2.7,0.4-3.3,1c-0.6,0.6-0.9,2.1-0.9,4.5c0,0.5,0,1.8,0.1,3.9
		c0.1,2.1,0.1,5,0.1,8.7h7.5c3.2,0,5.8,0,7.8,0.1c2,0.1,3.6,0.3,4.7,0.6c1.1,0.3,1.9,0.8,2.3,1.4c0.4,0.7,0.6,1.5,0.6,2.6
		c0,0.5,0,1-0.1,1.5c-0.1,0.4-0.3,0.8-0.8,1.2c-0.4,0.3-1,0.6-1.8,0.8c-0.8,0.2-1.9,0.4-3.3,0.5c-1.7,0.1-3.4,0.2-4.9,0.2
		c-1.5,0-3,0-4.5,0h-7.6c0,0.9,0,2,0,3.2c0,1.3,0,2.6,0,3.9c0,1.3,0,2.6,0,3.9c0,1.3,0.1,2.3,0.1,3.1c0.1,1,0.2,1.8,0.4,2.4
		c0.2,0.7,0.6,1.2,1.2,1.6c0.6,0.4,1.4,0.7,2.5,0.9c1.1,0.2,2.6,0.3,4.5,0.3h19.3c2.1,0,3.4,0.4,4,1.2c0.5,0.8,0.8,1.8,0.8,3.1
		c0,1.1-0.2,1.9-0.7,2.5c-0.5,0.6-1.6,1-3.5,1.3c-1.8,0.3-4.6,0.4-8.2,0.5c-3.6,0.1-8.6,0.1-15,0.1c-2.7,0-4.9-0.2-6.7-0.7
		c-1.7-0.5-3.1-1.3-4.2-2.4s-1.9-2.6-2.4-4.5C83.4,59.3,83,57.1,82.9,54.5z"/>
	<path class="st1" d="M170.3,63.6c-0.6-1.4-1.2-3.1-1.9-5c-0.7-1.9-1.4-3.9-2.2-6c-1.8,0.1-3.7,0.1-5.7,0.1s-4,0-6,0
		c-2.6,0-4.9,0-7,0c-2.1,0-4,0-5.8-0.1c-0.7,2.1-1.4,4.1-2.1,5.9c-0.7,1.9-1.3,3.5-1.9,5c-1.2,3.1-2.9,4.6-5.2,4.6
		c-0.8,0-1.6-0.3-2.4-0.8c-0.8-0.5-1.1-1.3-1.1-2.3c0-1,0.2-2.4,0.5-4c0.4-1.6,0.8-3.4,1.4-5.3c0.6-1.9,1.2-3.8,1.8-5.9
		c0.7-2,1.3-3.9,1.9-5.6c0.6-1.9,1.5-4.4,2.6-7.3c1.1-3,2.3-6.1,3.6-9.3c1.3-3.2,2.5-6.4,3.8-9.6c1.3-3.2,2.4-5.9,3.4-8.2
		c0.2-0.6,0.5-1.3,0.9-2c0.4-0.8,0.8-1.5,1.3-2.1c0.5-0.7,1.1-1.2,1.7-1.7c0.6-0.5,1.3-0.7,2.1-0.7c0.8,0,1.5,0.3,2.2,0.8
		c0.7,0.5,1.2,1.1,1.8,1.8c0.5,0.7,1,1.5,1.4,2.2c0.4,0.8,0.7,1.5,0.9,2.1c1,2.4,2.1,5.2,3.3,8.3c1.2,3.1,2.5,6.3,3.7,9.4
		c1.2,3.2,2.4,6.2,3.5,9.1c1.1,2.9,1.9,5.3,2.6,7.3c0.5,1.7,1.2,3.6,1.8,5.6c0.7,2,1.3,3.9,1.9,5.9c0.6,1.9,1.1,3.7,1.5,5.4
		c0.4,1.7,0.6,3,0.6,4c0,1-0.4,1.8-1.1,2.3c-0.8,0.5-1.5,0.8-2.4,0.8c-1.1,0-2.1-0.4-3-1.1C171.8,66.3,171,65.1,170.3,63.6z
		 M154.4,43.8c1.4,0,2.9,0,4.3,0s2.9,0.1,4.3,0.1c-0.7-2.1-1.4-4.2-2.2-6.3c-0.7-2.1-1.4-4.1-2-6c-0.6-1.9-1.2-3.7-1.7-5.4
		c-0.5-1.7-0.9-3.1-1.3-4.4c-0.2-0.8-0.5-1.4-0.8-1.9c-0.3-0.5-0.7-0.7-1.2-0.7c-0.5,0-0.9,0.3-1.2,0.8c-0.3,0.5-0.6,1.2-0.8,1.9
		c-0.7,2.5-1.7,5.7-3,9.6c-1.3,3.9-2.7,8.1-4.1,12.4c1.6-0.1,3.2-0.1,4.9-0.1C151.3,43.8,152.9,43.8,154.4,43.8z"/>
	<path class="st1" d="M207.4,4.6c1.7,0,3.6,0.1,5.8,0.4c2.2,0.3,4.2,0.8,6.2,1.4c1.9,0.7,3.5,1.6,4.9,2.7c1.3,1.1,2,2.5,2,4.1
		c0,1-0.3,1.8-0.8,2.4c-0.5,0.7-1.4,1-2.6,1c-0.9,0-1.8-0.2-2.7-0.5c-0.9-0.4-2-0.7-3.1-1.1c-1.2-0.4-2.5-0.8-4-1.1
		c-1.5-0.4-3.3-0.5-5.4-0.5c-4,0-6.9,0.7-8.8,2.1c-1.9,1.4-2.8,3.3-2.8,5.8c0,1.7,0.4,3.1,1.3,4.2c0.8,1.1,2,2.1,3.4,2.9
		c1.4,0.8,3,1.5,4.8,2c1.8,0.5,3.6,1.1,5.4,1.5c2.1,0.5,4.2,1.2,6.3,2c2.1,0.8,3.9,1.8,5.5,3.1c1.6,1.3,2.9,2.9,3.9,4.8
		c1,1.9,1.5,4.4,1.5,7.3c0,3.1-0.6,5.8-1.7,8.2c-1.1,2.4-2.7,4.5-4.7,6.2c-2,1.7-4.4,3-7.1,4c-2.8,0.9-5.8,1.4-9,1.4
		c-1.8,0-3.9-0.2-6.3-0.5c-2.4-0.3-4.7-0.9-6.8-1.7c-2.2-0.8-4-1.9-5.5-3.2c-1.5-1.4-2.3-3-2.3-5c0-1.2,0.3-2.2,0.9-2.9
		c0.6-0.7,1.6-1.1,2.8-1.1c1,0,1.9,0.2,2.5,0.6c0.7,0.4,1.2,0.8,1.7,1.3c1.8,1.6,3.8,2.6,6.1,3.2c2.3,0.5,4.6,0.8,7,0.8
		c1.4,0,2.8-0.1,4.4-0.3c1.5-0.2,2.9-0.6,4.2-1.3c1.3-0.7,2.3-1.6,3.1-2.8c0.8-1.2,1.3-2.9,1.3-5c0-1.9-0.4-3.5-1.1-4.7
		c-0.8-1.2-1.8-2.3-3-3.1c-1.3-0.8-2.7-1.5-4.5-2.1s-3.6-1.1-5.5-1.6c-2.2-0.6-4.4-1.3-6.6-2c-2.2-0.7-4.1-1.7-5.8-2.9
		c-1.7-1.2-3-2.8-4.1-4.7c-1.1-1.9-1.6-4.3-1.6-7.2c0-2.9,0.5-5.5,1.6-7.7c1.1-2.2,2.5-4.1,4.4-5.6c1.9-1.5,4.1-2.6,6.6-3.4
		C201.7,5,204.5,4.6,207.4,4.6z"/>
	<path class="st1" d="M254.1,62.6c-0.1-3.3-0.2-6.8-0.3-10.6c-0.1-3.7-0.1-8.1-0.1-13l-17.9-25.6c-0.5-0.7-0.9-1.4-1.1-2.1
		s-0.4-1.4-0.4-2.1c0-1.1,0.3-2.1,0.9-2.8c0.6-0.7,1.7-1.1,3.3-1.1c1.3,0,2.4,0.3,3.4,1c1,0.7,1.9,1.7,2.7,3L258,30.6l13.4-21.3
		c0.8-1.3,1.8-2.3,2.7-3c1-0.7,2.1-1,3.4-1c1.6,0,2.7,0.4,3.3,1.1c0.6,0.8,0.9,1.7,0.9,2.8c0,0.7-0.1,1.4-0.4,2.1s-0.6,1.4-1.1,2.1
		l-17.5,25.1c0,4.1,0,8-0.1,11.7c-0.1,3.8-0.2,7.8-0.4,12.3c-0.1,1.4-0.2,2.6-0.4,3.3c-0.2,0.8-0.5,1.4-0.9,1.8
		c-0.4,0.4-0.8,0.7-1.2,0.8c-0.5,0.1-1,0.1-1.6,0.1c-1.1,0-2-0.4-2.7-1.1C254.7,66.6,254.3,65,254.1,62.6z"/>
</g>
<g class="st0">
	<path class="st1" d="M333.3,22.2c0.4-0.8,0.9-1.5,1.7-2.1c0.7-0.5,1.5-0.8,2.4-0.8c0.8,0,1.5,0.3,2.3,0.8c0.7,0.5,1.3,1.2,1.7,2
		c2.3,4.7,4.5,9.7,6.8,15.2c2.2,5.4,4.2,10.6,6,15.4c1-7.4,2.1-14.9,3.3-22.5c1.2-7.6,2.5-14.8,4-21.7c0.2-0.8,0.5-1.4,0.8-1.9
		c0.4-0.5,0.8-0.9,1.2-1.2c0.4-0.3,0.9-0.5,1.3-0.6c0.4-0.1,0.8-0.2,1.1-0.2c1,0,1.9,0.3,2.5,0.9c0.7,0.6,1,1.3,1,2.3
		c0,1.1-0.2,3-0.5,5.7c-0.4,2.7-0.8,5.9-1.4,9.5c-0.6,3.6-1.3,7.5-2,11.6c-0.8,4.1-1.5,8-2.2,11.8c-0.7,3.8-1.4,7.2-2.1,10.4
		c-0.7,3.1-1.2,5.5-1.6,7.1c-0.4,1.4-0.9,2.4-1.6,3.1c-0.7,0.7-1.8,1-3.1,1c-1.4,0-2.7-0.6-3.6-1.9c-1-1.3-2.1-3.3-3.2-6.1
		c-1.2-2.8-2.6-6.3-4.2-10.6c-1.6-4.3-3.7-9.4-6.3-15.4c-2.6,6-4.8,11.2-6.4,15.5c-1.7,4.3-3.1,7.9-4.2,10.6
		c-1.2,2.8-2.3,4.8-3.3,6.1c-1,1.3-2.2,1.9-3.6,1.9c-2.4,0-4-1.4-4.8-4.1c-0.5-1.6-1.1-4-1.7-7.1c-0.7-3.1-1.3-6.5-2-10.3
		c-0.7-3.8-1.4-7.7-2.1-11.7c-0.7-4-1.4-7.9-1.9-11.5c-0.5-3.6-1-6.8-1.3-9.5c-0.3-2.7-0.5-4.6-0.5-5.7c0-1,0.3-1.9,1-2.5
		c0.7-0.7,1.6-1,2.8-1c0.8,0,1.6,0.3,2.4,0.8c0.8,0.5,1.4,1.5,1.7,3.1c1.4,6.9,2.7,14.1,3.8,21.7c1.1,7.6,2.3,15.1,3.6,22.5
		c1.9-4.4,3.7-9,5.6-14C328.2,33.9,330.5,28.4,333.3,22.2z"/>
	<path class="st1" d="M377.6,54.5c-0.1-1.9-0.2-4.5-0.4-7.8c-0.1-3.3-0.2-6.7-0.2-10.2c0-2,0-4,0-6.2c0-2.1,0.1-4.3,0.1-6.5
		c0.1-4.4,0.4-7.9,0.9-10.4c0.4-2.5,1.3-4.4,2.7-5.7c1.4-1.3,3.3-2,5.7-2.3c2.5-0.3,5.7-0.4,9.8-0.4c0.1,0,0.7,0,1.9,0
		c1.2,0,2.7,0,4.5,0s3.6,0.1,5.4,0.1c1.9,0.1,3.5,0.1,4.7,0.2c1.3,0.1,2.4,0.3,3.2,0.5c0.8,0.2,1.4,0.5,1.8,0.8
		c0.4,0.3,0.7,0.7,0.8,1.2c0.1,0.4,0.2,0.9,0.2,1.5c0,1.4-0.4,2.4-1.2,3c-0.8,0.6-2.4,1-4.8,1.2c-1.2,0.1-3,0.2-5.3,0.2
		c-2.3,0-4.7,0-7.1,0c-2.4,0-4.6,0-6.5,0c-1.9,0-3.1,0-3.6,0c-1.6,0.1-2.7,0.4-3.3,1s-0.9,2.1-0.9,4.5c0,0.5,0,1.8,0.1,3.9
		c0.1,2.1,0.1,5,0.1,8.7h7.5c3.2,0,5.8,0,7.8,0.1c2,0.1,3.6,0.3,4.7,0.6c1.1,0.3,1.9,0.8,2.3,1.4c0.4,0.7,0.6,1.5,0.6,2.6
		c0,0.5,0,1-0.1,1.5c-0.1,0.4-0.3,0.8-0.8,1.2c-0.4,0.3-1,0.6-1.8,0.8c-0.8,0.2-1.9,0.4-3.3,0.5c-1.7,0.1-3.4,0.2-4.9,0.2
		c-1.5,0-3,0-4.5,0h-7.6c0,0.9,0,2,0,3.2c0,1.3,0,2.6,0,3.9c0,1.3,0,2.6,0,3.9c0,1.3,0.1,2.3,0.1,3.1c0.1,1,0.2,1.8,0.4,2.4
		c0.2,0.7,0.6,1.2,1.2,1.6c0.6,0.4,1.4,0.7,2.5,0.9c1.1,0.2,2.6,0.3,4.5,0.3h19.3c2.1,0,3.4,0.4,4,1.2c0.5,0.8,0.8,1.8,0.8,3.1
		c0,1.1-0.2,1.9-0.7,2.5c-0.5,0.6-1.6,1-3.5,1.3c-1.8,0.3-4.6,0.4-8.2,0.5c-3.6,0.1-8.6,0.1-15,0.1c-2.7,0-4.9-0.2-6.7-0.7
		s-3.1-1.3-4.2-2.4s-1.9-2.6-2.4-4.5C378.1,59.3,377.7,57.1,377.6,54.5z"/>
	<path class="st1" d="M443.8,68.1c-3.4,0-6.1-0.3-8.1-0.8c-2-0.5-3.6-1.3-4.7-2.3c-1.1-1-1.9-2.2-2.3-3.6c-0.4-1.4-0.7-3.1-0.9-4.9
		c-0.2-2.1-0.3-4.9-0.4-8.3c-0.1-3.5-0.1-7-0.1-10.8c0-1.8,0-3.7,0-5.7c0-2,0.1-4,0.1-5.9c0-1.9,0.1-3.8,0.1-5.4
		c0.1-1.7,0.1-3.1,0.3-4.3c0.2-1.9,0.5-3.5,0.9-5c0.4-1.5,1.2-2.8,2.4-3.9c1.2-1.1,2.8-1.9,5-2.5c2.1-0.6,5-0.9,8.5-0.9
		c8,0,14.1,1.5,18,4.5c4,3,6,7.2,6,12.6c0,2.8-0.6,5.4-1.8,7.8c-1.2,2.4-3.3,4.2-6.3,5.4c1.7,0.3,3.2,0.9,4.6,1.9
		c1.4,1,2.6,2.1,3.6,3.5c1,1.3,1.7,2.9,2.3,4.5c0.5,1.7,0.8,3.3,0.8,5c0,2.2-0.5,4.4-1.3,6.6c-0.9,2.3-2.4,4.3-4.6,6.2
		c-2.2,1.9-5,3.4-8.6,4.6C453.5,67.5,449.1,68.1,443.8,68.1z M446,12.3c-2,0-3.6,0.2-4.8,0.5c-1.2,0.3-2.2,0.8-2.8,1.3
		s-1.1,1.2-1.3,2c-0.2,0.8-0.3,1.6-0.3,2.5v12.6c0.8,0.1,1.7,0.1,2.7,0.1c0.9,0,1.8,0,2.7,0c2.2,0,4.3-0.1,6.3-0.5
		c2.1-0.3,3.9-0.8,5.6-1.5c1.7-0.7,3-1.7,4-3c1-1.3,1.5-2.9,1.5-4.9c0-2.7-1.1-4.9-3.3-6.6C454.2,13.2,450.7,12.3,446,12.3z
		 M462.6,48.7c0-2.2-0.5-3.9-1.5-5.2c-1-1.3-2.3-2.3-3.8-3c-1.6-0.7-3.3-1.2-5.2-1.4c-1.9-0.2-3.8-0.4-5.8-0.4c-1.5,0-3.1,0-4.7,0
		s-3.1,0-4.5,0.1c-0.1,1.3-0.1,2.6-0.2,3.9c-0.1,1.3-0.1,2.6-0.1,3.7c0,1.2,0,2.2,0,3.1c0,0.9,0,1.5,0,1.8c0,1.6,0.1,3,0.4,4
		c0.2,1.1,0.7,2,1.3,2.6c0.7,0.7,1.6,1.1,2.8,1.4c1.2,0.3,2.8,0.4,4.7,0.4c5.3,0,9.4-0.9,12.2-2.8C461.2,55.1,462.6,52.4,462.6,48.7
		z"/>
	<path class="st1" d="M533.5,13.4c-1.7,0.1-3.5,0.2-5.4,0.3c-1.9,0.1-4,0.1-6.3,0.2c0.1,1.6,0.1,3.1,0.2,4.5
		c0.1,1.4,0.1,2.8,0.2,4.3c0.1,1.4,0.1,2.9,0.1,4.5c0,1.6,0,3.3,0,5.2c0,2.7,0,5.3,0,7.8c0,2.5,0,5-0.1,7.5c-0.1,2.5-0.1,5-0.2,7.5
		c-0.1,2.5-0.2,5.1-0.3,7.8c-0.1,1.4-0.2,2.6-0.4,3.3c-0.2,0.8-0.5,1.4-0.9,1.8c-0.4,0.4-0.8,0.7-1.3,0.8c-0.5,0.1-1,0.1-1.6,0.1
		c-1.1,0-2-0.4-2.7-1.1c-0.8-0.8-1.2-2.4-1.3-4.8c-0.1-2.2-0.2-4.4-0.2-6.8c0-2.4-0.1-5-0.1-7.7c-0.1-2.8-0.1-5.7-0.1-9
		c0-3.2,0-6.8,0-10.7c0-3.3,0-6.2,0-8.6c0-2.5,0.1-4.6,0.2-6.4h-3.7c-2.5,0-4.7,0-6.4-0.1c-1.8-0.1-3.2-0.2-4.4-0.5
		c-1.1-0.3-2-0.7-2.5-1.3c-0.5-0.6-0.8-1.4-0.8-2.5c0-0.5,0.1-1,0.2-1.5c0.1-0.5,0.4-0.9,0.8-1.3c0.4-0.4,1-0.7,1.8-0.9
		c0.7-0.2,1.7-0.4,2.9-0.5c1.1-0.1,2.2-0.1,3.1-0.2c0.9-0.1,1.8-0.1,2.7-0.2c0.9-0.1,1.8-0.1,2.8-0.1c1,0,2.1,0,3.3,0
		c3.5,0,6.9,0,10,0.1s6.5,0.2,10,0.4c1.4,0.1,2.5,0.3,3.3,0.5c0.8,0.2,1.4,0.5,1.8,0.9c0.4,0.4,0.7,0.8,0.8,1.3
		c0.1,0.5,0.1,1,0.1,1.6c0,1.1-0.4,2-1.1,2.7C537.6,12.9,536,13.3,533.5,13.4z"/>
	<path class="st1" d="M567.2,69c-3.6,0-7-0.7-10.1-2.2c-3.2-1.4-5.9-3.5-8.2-6.3c-2.3-2.7-4.2-6.1-5.5-10c-1.3-4-2-8.5-2-13.5
		c0-4.7,0.6-9.1,1.8-13s2.9-7.4,5.2-10.3c2.3-2.9,5.2-5.1,8.6-6.7c3.4-1.6,7.4-2.4,11.9-2.4c3.7,0,7.1,0.7,10.4,2
		c3.3,1.3,6.2,3.3,8.7,5.9c2.5,2.6,4.5,5.9,5.9,9.9c1.4,4,2.2,8.6,2.2,13.9c0,4.4-0.6,8.5-1.8,12.5s-2.9,7.4-5.3,10.4
		c-2.4,3-5.4,5.3-9,7.1C576.3,68.2,572.1,69,567.2,69z M567.4,60.6c3.3,0,6.2-0.7,8.6-2c2.5-1.3,4.5-3.1,6.1-5.4
		c1.6-2.2,2.8-4.8,3.6-7.7c0.8-2.9,1.2-5.9,1.2-9c0-3.7-0.5-7-1.5-9.9c-1-2.9-2.3-5.4-4-7.3c-1.7-2-3.6-3.5-5.8-4.5
		c-2.2-1-4.6-1.6-7.1-1.6c-3,0-5.6,0.6-7.9,1.9c-2.3,1.3-4.1,3-5.7,5.1s-2.7,4.7-3.5,7.6c-0.8,2.9-1.2,6-1.2,9.3
		c0,3.5,0.4,6.8,1.3,9.7c0.9,2.9,2.1,5.4,3.6,7.4c1.5,2,3.3,3.6,5.4,4.7C562.8,60,565,60.6,567.4,60.6z"/>
	<path class="st1" d="M626.6,69.7c-6.8,0-11.8-1.9-15-5.6c-1.3-1.4-2.3-3.3-3.2-5.5c-0.9-2.3-1.6-5.2-2.1-8.8
		c-0.5-3.6-0.9-8.1-1.1-13.4c-0.2-5.3-0.3-11.8-0.3-19.4c0-2.5,0.1-4.5,0.2-6.1c0.1-1.6,0.4-2.8,0.7-3.8c0.4-0.9,0.8-1.6,1.4-1.9
		c0.6-0.4,1.3-0.5,2.2-0.5c1.7,0,3,0.8,3.7,2.3c0.7,1.6,1.1,4.3,1.1,8.1c0,1.3,0,2.5,0,3.5c0,1,0,2.1,0,3.1s0,2.2,0,3.5
		c0,1.3,0,2.8,0,4.6c0,6,0.2,11,0.6,14.9c0.4,4,1.1,7.1,2,9.5c1,2.4,2.3,4,3.9,5c1.6,1,3.7,1.4,6.2,1.4c2.6,0,4.7-0.5,6.4-1.6
		c1.7-1,3.1-2.8,4.1-5.3c1-2.5,1.8-5.8,2.2-9.9c0.4-4.1,0.7-9.3,0.7-15.5c0-2.7,0-5,0-6.9c0-1.9,0-3.7,0-5.2c0-2.2,0.1-4.1,0.2-5.6
		c0.2-1.5,0.4-2.7,0.7-3.6c0.3-0.9,0.8-1.5,1.4-1.8c0.6-0.4,1.4-0.5,2.3-0.5c0.9,0,1.7,0.2,2.3,0.5c0.6,0.4,1.1,1,1.4,1.9
		c0.4,0.9,0.6,2.1,0.7,3.7c0.1,1.6,0.2,3.6,0.2,6.2c0,10.6-0.3,19.2-1,26.1c-0.7,6.8-1.8,12.2-3.5,16.1c-1.7,3.9-4,6.7-6.9,8.2
		C634.9,68.9,631.2,69.7,626.6,69.7z"/>
	<path class="st1" d="M680.8,46c-0.8,0.1-1.7,0.1-2.6,0.1c-0.9,0-1.8,0-2.7,0c-1,0-2,0-3.1,0c-1,0-2.2-0.1-3.4-0.2v18.3
		c0,1.9-0.5,3.1-1.4,3.6c-0.9,0.5-2.1,0.7-3.5,0.7c-0.7,0-1.3,0-1.7-0.1c-0.4-0.1-0.8-0.3-1-0.5c-0.3-0.3-0.5-0.7-0.6-1.2
		c-0.2-0.5-0.3-1.3-0.3-2.3c-0.1-1.1-0.2-2.7-0.3-4.7c-0.1-2.1-0.1-4.8-0.1-8.1c0-3.3-0.1-7.3-0.1-12c0-4.7,0-10.2,0-16.6
		c0-2.5,0.3-4.8,0.9-7.2c0.6-2.3,1.7-4.3,3.2-6.1c1.6-1.8,3.7-3.2,6.3-4.3c2.7-1.1,6.1-1.6,10.2-1.6c2.9,0,5.8,0.3,8.6,1
		c2.8,0.7,5.3,1.8,7.4,3.4c2.2,1.6,3.9,3.8,5.2,6.6c1.3,2.8,2,6.2,2,10.4c0,5.5-1.2,9.8-3.6,12.8c-2.4,3-5.6,5.2-9.8,6.4l12.1,16.6
		c1.1,1.4,1.6,2.9,1.6,4.4c0,1.2-0.4,2.1-1.2,2.8c-0.8,0.7-1.8,1-3,1c-1.3,0-2.5-0.4-3.4-1.1c-1-0.8-1.9-1.7-2.7-2.9L680.8,46z
		 M694.9,25c0-4.1-1.2-7.2-3.7-9.2c-2.5-2-6.4-3-11.8-3c-2,0-3.6,0.2-5,0.5c-1.3,0.3-2.4,0.9-3.1,1.8c-0.8,0.9-1.3,2.1-1.7,3.7
		c-0.3,1.6-0.5,3.6-0.5,6.1c0,1.7,0,3.8,0,6.1s0,4.5,0.1,6.4c1.4,0.1,2.9,0.1,4.6,0.1s3.3,0,4.8,0c1.7,0,3.5-0.1,5.4-0.3
		c1.9-0.2,3.6-0.7,5.3-1.6c1.6-0.9,3-2.1,4-3.8C694.4,30.2,694.9,27.9,694.9,25z"/>
</g>
<g>
	<path class="st2" d="M73.7,2.1v12.6c0,1.2-0.9,2.1-2.1,2.1H54.5V0h17.1C72.8,0,73.7,0.9,73.7,2.1z"/>
	<path class="st3" d="M52.4,16.8l1.5,3.2l-1.5,3.2h-4.2l-1.6-2.8l1.6-3.5h4.2V16.8z"/>
	<path class="st4" d="M8.3,37.8V42l-3.2,1.1L2,42v-4.2l3.2-1.1L8.3,37.8z"/>
	<path class="st5" d="M54.5,71.7c-1.2,0-2.1-0.9-2.1-2.1V2.1c0-1.2,0.9-2.1,2.1-2.1s2.1,0.9,2.1,2.1v67.5
		C56.6,70.7,55.7,71.7,54.5,71.7z"/>
	<path class="st4" d="M8.3,42H2v3.2c0,1.7,1.4,3.2,3.2,3.2s3.2-1.4,3.2-3.2L8.3,42L8.3,42z"/>
	<path class="st6" d="M2,25.2v12.6h6.3V27.3c0-1.2,0.9-2.1,2.1-2.1s2.1,0.9,2.1,2.1v37.8l-1.4,0.5c-1.7,0.6-2.8,2.2-2.8,3.9
		c0,1.2,0.9,2.1,2.1,2.1h8.4c1.2,0,2.1-0.9,2.1-2.1V48.3c0-1.2,0.9-2.1,2.1-2.1s2.1,0.9,2.1,2.1v21.3c0,1.2,0.9,2.1,2.1,2.1h8.4
		c1.2,0,2.1-0.9,2.1-2.1c0-1.8-1.1-3.4-2.8-3.9l-1.4-0.5v-42h14.7v-6.3H10.4C5.8,16.8,2,20.6,2,25.2z"/>
	<path class="st3" d="M57.7,16.8h-5.3v6.3h5.3c1.7,0,3.2-1.4,3.2-3.2C60.8,18.2,59.4,16.8,57.7,16.8z"/>
	<path class="st4" d="M23,16.8h25.2v6.3H33.5v42l1.4,0.5c1.7,0.6,2.8,2.2,2.8,3.9c0,1.2-0.9,2.1-2.1,2.1h-8.4
		c-1.2,0-2.1-0.9-2.1-2.1V48.3c0-1.2-0.9-2.1-2.1-2.1C23,46.2,23,16.8,23,16.8z"/>
	<path class="st4" d="M33.5,10.5v6.3h-21v-6.3C12.5,4.7,17.2,0,23,0S33.5,4.7,33.5,10.5z"/>
	<path class="st3" d="M33.5,10.5v6.3H23V0C28.8,0,33.5,4.7,33.5,10.5z"/>
	<path class="st6" d="M26.6,9.9l-4.2,4.2c-0.8,0.8-2.1,0.8-2.9,0s-0.8-2.1,0-2.9L23.7,7c0.8-0.8,2.1-0.8,2.9,0
		C27.4,7.7,27.4,9.1,26.6,9.9z"/>
	<path class="st4" d="M26.6,9.9L23,13.4V7.6L23.6,7c0.8-0.8,2.1-0.8,2.9,0C27.4,7.7,27.4,9.1,26.6,9.9z"/>
	<path class="st4" d="M27.2,27.3c0,1.2-0.9,2.1-2.1,2.1h-4.2c-1.2,0-2.1-0.9-2.1-2.1s0.9-2.1,2.1-2.1h4.2
		C26.3,25.2,27.2,26.1,27.2,27.3z"/>
	<path class="st3" d="M27.2,27.3c0,1.2-0.9,2.1-2.1,2.1H23v-4.2h2.1C26.3,25.2,27.2,26.1,27.2,27.3z"/>
	<path class="st4" d="M18.1,33.7c1.1-0.4,2.3,0.2,2.7,1.3s-0.2,2.3-1.3,2.7c-1.1,0.4-2.3-0.2-2.7-1.3C16.4,35.3,17,34.1,18.1,33.7"
		/>
	<path class="st3" d="M26.5,33.7c1.1-0.4,2.3,0.2,2.7,1.3s-0.2,2.3-1.3,2.7c-1.1,0.4-2.3-0.2-2.7-1.3C24.8,35.3,25.4,34.1,26.5,33.7
		"/>
</g>
</svg>
